<?xml version="1.0" encoding="utf-8"?>
<!-- Generator: Adobe Illustrator 15.0.0, SVG Export Plug-In . SVG Version: 6.00 Build 0)  -->
<!DOCTYPE svg PUBLIC "-//W3C//DTD SVG 1.1//EN" "http://www.w3.org/Graphics/SVG/1.1/DTD/svg11.dtd">
<svg version="1.1" id="Ebene_1" xmlns="http://www.w3.org/2000/svg" xmlns:xlink="http://www.w3.org/1999/xlink" x="0px" y="0px"
	 width="200px" height="200px" viewBox="0 0 200 200" enable-background="new 0 0 200 200" xml:space="preserve">
<g>
	<defs>
		<rect id="SVGID_1_" x="-0.371" y="0.608" width="200" height="200"/>
	</defs>
	<clipPath id="SVGID_2_">
		<use xlink:href="#SVGID_1_"  overflow="visible"/>
	</clipPath>
	<g clip-path="url(#SVGID_2_)">
		<path d="M129.543,72.144c0-3.536-1.967-6.729-5.898-9.581c-3.932-2.851-8.108-4.277-12.531-4.277
			c-5.405,0-9.873,1.452-13.402,4.357c0.938,0.485,2.981,1.65,6.132,3.499c3.149,1.849,5.907,3.103,8.276,3.763
			c2.367,0.66,4.602,0.99,6.701,0.99c1.116,0,2.814-0.22,5.094-0.66c0,0.353-0.582,0.693-1.742,1.023
			c-1.163,0.331-2.369,0.495-3.62,0.495c-1.922,0-4.021-0.33-6.3-0.99c-2.277-0.661-5.081-1.991-8.409-3.995
			c-3.329-2.002-5.507-3.268-6.534-3.796c-0.85,0.705-1.721,1.651-2.613,2.839l-0.134-0.264c0-0.439,0.715-1.387,2.145-2.839
			c-0.537-0.352-0.938-0.572-1.206-0.66l-0.805,0.264c-0.581,0-0.871-0.33-0.871-0.99c-0.447-0.264-1.229-0.572-2.346-0.924
			c-0.09,0.352,0.166,0.782,0.77,1.287c0.604,0.506,0.906,0.914,0.906,1.221l-0.268,0.66c-0.715-0.967-1.363-1.518-1.943-1.65
			c-1.477-0.396-2.102-1.123-1.877-2.179l-1.14-0.264c-0.134,0.264-0.402,0.396-0.804,0.396c-0.537,0-0.805-0.22-0.805-0.661
			l-1.408-0.132c-0.134,0.264-0.4,0.396-0.803,0.396c-0.447,0-0.715-0.175-0.805-0.528h-0.737c-0.76,0-1.296,0.045-1.608,0.132
			c-1.742,2.421-2.613,5.062-2.613,7.922v2.047c0,0.396,0.268,1.431,0.805,3.103c0.982,3.037,2.926,5.546,5.829,7.526l0.47,0.329
			l-0.402,0.133c-0.357,0-1.352-0.682-2.981-2.047c-1.631-1.363-2.915-3.344-3.854-5.941l-0.671-2.971
			c-0.089-0.396-0.133-1.165-0.133-2.31c0-2.552,0.67-5.105,2.01-7.659c-7.997,1.321-14.709,4.116-20.138,8.385
			c-5.429,4.27-8.142,9.308-8.142,15.118c0,5.502,1.922,9.694,5.768,12.577s9.166,4.324,15.963,4.324h1.677
			c1.653,0,3.979-0.55,6.976-1.651c2.504-0.924,5.074-2.354,7.713-4.291l0.268,0.265c-3.084,2.201-5.79,3.785-8.115,4.753
			c-2.549,1.101-4.896,1.65-7.042,1.65h-1.476c-6.975,0-12.465-1.519-16.466-4.561c-4.003-3.041-6.003-7.469-6.003-13.286
			c0-5.949,2.851-11.126,8.552-15.533c5.7-4.407,12.643-7.227,20.825-8.461c2.369-3.701,5.958-6.653,10.766-8.856
			c4.806-2.204,9.736-3.306,14.789-3.306c7.512,0,14.118,1.343,19.818,4.029c5.701,2.687,10.096,6.298,13.18,10.833
			c3.086,4.537,4.629,8.962,4.629,13.277c0,4.315-1.588,8.06-4.762,11.229c3.355,1.454,5.971,3.579,7.848,6.374
			c1.877,2.797,2.816,5.957,2.816,9.48c0,2.861-0.939,5.461-2.818,7.793c-1.877,2.336-4.471,4.098-7.779,5.285
			c0.625,1.408,0.939,3.039,0.939,4.889c0,4.537-1.744,8.809-5.232,12.814c-3.486,4.006-8.34,7.221-14.555,9.645
			c1.208,1.893,1.812,3.875,1.812,5.943c0,4.271-2.191,7.961-6.573,11.066c-4.382,3.104-9.523,4.656-15.426,4.656
			c-6.976,0-12.912-1.74-17.808-5.217c-4.896-3.477-7.345-8.053-7.345-13.73c-0.225,0.088-0.672,0.131-1.346,0.131
			c-5.965,0-10.898-1.715-14.801-5.148s-5.853-8.033-5.853-13.797c0-5.326,2.022-10.078,6.07-14.262
			c4.046-4.18,9.267-6.908,15.661-8.186c2.637-0.527,5.074-0.703,7.311-0.527c5.589,0.439,9.848,1.605,12.777,3.498
			c2.928,1.893,4.393,3.08,4.393,3.564l-0.268,0.266l-0.537-0.396c-4.248-3.697-9.703-5.744-16.365-6.141
			c-2.146-0.131-4.584,0.066-7.311,0.594c-5.947,1.145-10.688,3.676-14.22,7.592c-3.532,3.92-5.298,8.627-5.298,14.129
			c0,5.238,1.811,9.549,5.432,12.939c3.623,3.389,8.049,5.084,13.281,5.084h1.072c0.178-2.668,1.09-4.918,2.734-6.754
			c-2.226-1.574-3.965-3.088-5.216-4.537c-1.252-1.451-1.878-2.309-1.878-2.574l0.135-0.395l0.268,0.33
			c1.922,2.641,4.309,4.9,7.158,6.781c1.6-1.705,3.445-2.557,5.534-2.557c1.733,0,2.601,0.748,2.601,2.244
			c0,1.277-0.627,2.553-1.879,3.83c2.057,0.791,4.248,1.451,6.573,1.98c1.073-2.377,2.995-4.281,5.769-5.711
			c2.771-1.432,5.744-2.146,8.92-2.146c2.771,0,5.41,0.563,7.914,1.686c2.504,1.121,4.494,2.693,5.97,4.719
			c6.26-2.068,11.122-5.039,14.589-8.912c3.465-3.873,5.197-8.252,5.197-13.139c0-1.23-0.225-2.596-0.67-4.092
			c-1.789,0.66-3.803,0.99-6.037,0.99c-2.729,0-5.389-0.463-7.981-1.387l-0.403-0.131c-2.727-0.926-5.298-2.313-7.713-4.16v12.676
			c0,0.881-0.133,1.32-0.402,1.32c-0.268,0-0.402-0.264-0.402-0.793v-13.73c-0.67-0.617-1.096-1.045-1.273-1.289
			c-0.18-0.24-0.516-0.627-1.006-1.154c-0.807,0.484-1.857,1.254-3.154,2.311l-0.268-0.197c1.074-1.102,2.08-1.938,3.02-2.51
			c-1.208-1.584-2.181-3.125-2.919-4.621c-0.737-1.496-1.106-2.354-1.106-2.575l0.268-0.396l0.27,0.528
			c1.073,2.509,2.414,4.753,4.023,6.734c0.223-0.176,0.859-0.484,1.908-0.924c-0.199-0.529-0.298-0.969-0.298-1.32
			c0-0.572,0.179-0.99,0.536-1.254v-0.662c-0.984-0.223-1.476-0.785-1.476-1.685c0-0.988,0.515-1.482,1.543-1.482v-0.66
			c-0.401-0.265-0.604-0.683-0.604-1.255c0-0.352,0.089-0.825,0.269-1.419c0.178-0.595,0.268-1.243,0.268-1.948v-1.914
			c-1.118-0.176-1.855-0.406-2.213-0.692c-0.359-0.287-0.426-0.43-0.201-0.43l2.414,0.462v-6.734c0-0.703,0.135-1.056,0.402-1.056
			c0.27,0,0.402,0.353,0.402,1.056v6.867c1.162,0.352,3.221,0.527,6.172,0.527c2.458,0,5.063-0.512,7.813-1.537
			s5.174-2.476,7.277-4.352c-2.324-0.96-4.963-1.439-7.914-1.439c-2.549,0-5.858,0.749-9.928,2.245l-0.268-0.133
			c0-0.264,1.23-0.813,3.689-1.65c2.459-0.836,4.628-1.254,6.506-1.254c3.041,0,5.879,0.551,8.518,1.65
			c3.086-3.208,4.629-6.768,4.629-10.679c0-6.765-3.131-12.816-9.391-18.153C126.5,51.25,117.67,48.58,106.27,48.58
			c-5.01,0-9.783,0.87-14.32,2.608c-4.539,1.74-8.016,4.149-10.43,7.229h1.811c0.09-0.353,0.402-0.528,0.939-0.528
			c0.402,0,0.67,0.221,0.805,0.66l1.408,0.198c0.135-0.308,0.402-0.462,0.805-0.462c0.537,0,0.805,0.243,0.805,0.726l1.141,0.264
			c0.224-0.484,0.693-0.727,1.408-0.727c0.447,0,0.962,0.099,1.543,0.297c0.58,0.198,1.096,0.297,1.543,0.297
			c0.268,0,0.692-0.066,1.274-0.199l0.269,0.462c0,0.264-0.269,0.396-0.806,0.396l-1.476-0.066c-0.582,0-0.962,0.11-1.14,0.33
			c1.073,0.353,1.833,0.66,2.28,0.924c0.223-0.175,0.469-0.264,0.738-0.264c0.536,0,0.805,0.33,0.805,0.99l1.475,0.661
			c3.801-3.213,8.563-4.82,14.286-4.82c4.428,0,8.675,1.509,12.745,4.527c4.066,3.018,6.102,6.415,6.102,10.187
			c0,0.666-0.123,0.999-0.367,0.999C129.664,73.271,129.543,72.896,129.543,72.144z M130.279,72.221c0,2.923-1.416,5.38-4.25,7.371
			c-2.834,1.992-6.125,2.987-9.873,2.987c-5.443,0-11.804-1.54-19.076-4.621c-8.936,4.082-14.123,10.776-15.559,20.082l-0.135,0.725
			c-0.181,1.58-0.27,2.963-0.27,4.149v0.791c0.134,7.15,2.224,12.725,6.271,16.719c4.045,3.994,9.467,5.992,16.264,5.992
			c3.891,0,7.646-1.018,11.269-3.053l0.806-0.531c3.934-2.301,6.506-5.154,7.713-8.563l0.268-0.398l0.135,0.529
			c-0.762,4.006-3.504,7.736-8.229,11.189c-4.725,3.455-10.286,5.184-16.689,5.184c-7.209,0-13.23-2.1-18.066-6.297
			c-4.835-4.199-7.252-10.1-7.252-17.705c0-1.143,0.045-1.955,0.135-2.439v-0.855c0.18-1.408,0.36-2.441,0.541-3.1l0.203-0.66
			c1.354-4.922,4.016-9.318,7.986-13.187c3.969-3.869,8.549-6.857,13.737-8.968c-7.451-3.433-13.106-5.192-16.966-5.281h-0.943
			c-5.207,0-9.426,1.046-12.657,3.136c-3.232,2.091-4.847,4.786-4.847,8.087c0,2.509,0.867,4.402,2.604,5.678
			c1.734,1.277,3.916,1.915,6.543,1.915c1.379,0,3.158-0.704,5.341-2.112l0.269,0.264c0,0.309-0.738,0.837-2.214,1.585
			c-1.476,0.749-3.085,1.122-4.829,1.122c-2.012,0-3.924-0.77-5.734-2.311c-1.812-1.541-2.717-3.565-2.717-6.074
			c0-3.212,1.543-6.096,4.628-8.648c3.085-2.552,7.354-4.444,12.811-5.677l0.806-0.132c2.637-0.528,5.298-0.792,7.98-0.792
			c2.19,0,4.595,0.287,7.211,0.858c2.615,0.573,6.293,1.915,11.033,4.027c4.738,2.113,8.227,3.423,10.463,3.928
			c2.234,0.507,4.292,0.759,6.17,0.759c2.728,0,4.807-0.527,6.238-1.584c1.43-1.057,2.146-2.464,2.146-4.226
			c0-0.66,0.121-0.99,0.369-0.99C130.156,71.092,130.279,71.469,130.279,72.221z M82.258,140.543
			c-1.789-0.969-3.422-1.914-4.896-2.838c-1.432,1.717-2.259,3.785-2.482,6.205C77.605,143.471,80.066,142.348,82.258,140.543z
			 M74.879,144.637v0.66c0,5.148,2.426,9.363,7.277,12.643c4.852,3.277,10.564,4.918,17.137,4.918c5.857,0,10.854-1.475,14.99-4.424
			c4.137-2.947,6.205-6.469,6.205-10.563c0-1.848-0.56-3.697-1.678-5.545c-5.098,1.805-10.307,2.707-15.627,2.707
			c-4.605,0-8.786-0.484-12.543-1.453c-0.268,0.66-0.402,1.449-0.402,2.369c0,2.094,0.738,3.74,2.214,4.941
			c1.476,1.199,3.263,1.801,5.366,1.801c1.43,0,2.625-0.279,3.588-0.84c0.961-0.559,1.441-1.24,1.441-2.045
			c0-0.85-0.402-1.275-1.207-1.275c0.178,0.24,0.268,0.598,0.268,1.076c0,0.383-0.291,0.574-0.871,0.574
			c-0.805,0-1.207-0.316-1.207-0.949c0-0.996,0.58-1.492,1.744-1.492c1.342,0,2.012,0.666,2.012,2.004
			c0,0.979-0.526,1.836-1.576,2.572c-1.051,0.732-2.448,1.1-4.191,1.1c-2.236,0-4.193-0.682-5.869-2.045
			c-1.677-1.365-2.516-3.17-2.516-5.414c0-0.969,0.135-1.848,0.402-2.641c-2.012-0.441-4.292-1.254-6.841-2.443
			C80.982,142.766,78.277,144.02,74.879,144.637z M82.66,139.949c1.296-1.1,1.944-2.178,1.944-3.234s-0.737-1.584-2.213-1.584
			c-1.61,0-3.153,0.703-4.628,2.111C79.508,138.387,81.139,139.289,82.66,139.949z M97.818,89.908c0,1.057,0.266,2.124,0.799,3.202
			c0.533,1.079,1.943,2.553,4.232,4.423c2.287,1.872,3.742,3.499,4.364,4.885s0.933,2.807,0.933,4.258
			c0,3.213-1.398,5.998-4.191,8.352c-2.795,2.355-5.332,3.531-7.613,3.531c-1.744,0-3.252-0.471-4.527-1.418
			c-1.273-0.947-1.911-2.057-1.911-3.334c0-2.596,1.331-3.896,3.995-3.896c0.903,0,1.637,0.35,2.201,1.047
			c0.563,0.697,0.846,1.504,0.846,2.418c0,1.266-0.775,2.201-2.326,2.811l-0.424,0.262c0,0.297,0.34,0.568,1.021,0.816
			c0.68,0.248,1.314,0.371,1.905,0.371c1.36,0,2.778-0.705,4.253-2.117c1.473-1.41,2.211-2.865,2.211-4.363
			c0-1.324-0.304-2.637-0.912-3.938c-0.607-1.299-2.104-2.877-4.487-4.729c-2.386-1.852-3.881-3.406-4.488-4.663
			c-0.608-1.257-0.911-2.547-0.911-3.87c0-2.91,1.307-5.49,3.92-7.738c2.612-2.249,4.302-3.373,5.067-3.373l0.671,0.264
			l-0.604,0.462C99.159,85.243,97.818,87.356,97.818,89.908z M118.006,141.223c-1.521-1.877-3.51-3.352-5.969-4.422
			c-2.46-1.07-4.875-1.605-7.244-1.605c-2.951,0-5.734,0.666-8.35,1.998c-2.617,1.332-4.461,3.111-5.533,5.34
			c3.219,0.742,6.661,1.113,10.328,1.113C107.141,143.646,112.73,142.838,118.006,141.223z M114.854,108.723v-1.188
			c0-0.793-0.045-1.299-0.135-1.52c-0.983,0.396-1.541,0.684-1.676,0.859l0.67,0.791L114.854,108.723z M137.926,113.674
			c2.684-1.23,4.818-3.092,6.406-5.578c1.586-2.486,2.381-5.131,2.381-7.932c0-2.845-0.783-5.528-2.348-8.054
			c-1.566-2.524-3.801-4.469-6.707-5.833c-2.191,2.024-4.752,3.598-7.68,4.721c-2.93,1.122-5.69,1.683-8.283,1.683
			c-2.281,0-4.293-0.197-6.037-0.594v1.771c0,0.697,0.09,1.339,0.27,1.928c0.178,0.588,0.268,1.056,0.268,1.404
			c0,0.566-0.179,0.979-0.537,1.242v0.653c0.895,0,1.342,0.494,1.342,1.482c0,0.945-0.447,1.505-1.342,1.685v0.662
			c0.358,0.264,0.537,0.682,0.537,1.254c0,0.352-0.045,0.617-0.135,0.791c1.699-0.66,3.756-0.99,6.172-0.99
			c3.576,0,6.773,0.871,9.59,2.607C134.639,108.316,136.674,110.682,137.926,113.674z M137.523,113.945
			c-1.252-2.844-3.242-5.094-5.969-6.756c-2.729-1.662-5.881-2.494-9.458-2.494c-2.011,0-4.069,0.307-6.169,0.918
			c-0.18,0.525-0.27,1.16-0.27,1.904v1.902c4.964,3.76,10.463,5.641,16.5,5.641C133.945,115.061,135.734,114.689,137.523,113.945z"
			/>
	</g>
	<g clip-path="url(#SVGID_2_)">
		<g>
			<path d="M14.879,183.361c0-1.803-1.002-3.432-3.007-4.885c-2.004-1.453-4.134-2.18-6.389-2.18c-2.756,0-5.033,0.738-6.833,2.221
				c0.479,0.246,1.521,0.842,3.127,1.783c1.605,0.943,3.011,1.582,4.219,1.918c1.207,0.336,2.347,0.506,3.417,0.506
				c0.568,0,1.435-0.113,2.597-0.336c0,0.178-0.297,0.352-0.889,0.52c-0.593,0.17-1.208,0.254-1.846,0.254
				c-0.979,0-2.049-0.168-3.211-0.506c-1.161-0.336-2.591-1.014-4.287-2.035c-1.697-1.021-2.808-1.666-3.332-1.936
				c-0.433,0.359-0.877,0.842-1.332,1.447l-0.068-0.135c0-0.225,0.365-0.707,1.094-1.447c-0.274-0.18-0.479-0.291-0.615-0.336
				l-0.41,0.135c-0.296,0-0.444-0.17-0.444-0.506c-0.228-0.135-0.626-0.291-1.195-0.471c-0.046,0.18,0.085,0.398,0.393,0.656
				s0.462,0.465,0.462,0.623l-0.137,0.336c-0.364-0.494-0.695-0.773-0.991-0.842c-0.752-0.201-1.071-0.572-0.956-1.111l-0.581-0.133
				c-0.068,0.133-0.205,0.201-0.41,0.201c-0.273,0-0.41-0.113-0.41-0.336l-0.718-0.068c-0.068,0.135-0.204,0.203-0.409,0.203
				c-0.229,0-0.364-0.09-0.41-0.27H-9.07c-0.388,0-0.661,0.021-0.82,0.066c-0.888,1.234-1.332,2.58-1.332,4.039v1.043
				c0,0.203,0.137,0.73,0.41,1.582c0.501,1.549,1.491,2.828,2.972,3.838l0.239,0.168l-0.205,0.066c-0.182,0-0.688-0.348-1.52-1.043
				c-0.832-0.695-1.486-1.705-1.965-3.029l-0.342-1.514c-0.046-0.203-0.068-0.596-0.068-1.178c0-1.303,0.342-2.604,1.025-3.904
				c-4.077,0.672-7.499,2.098-10.267,4.273c-2.768,2.178-4.151,4.746-4.151,7.707c0,2.805,0.98,4.943,2.94,6.412
				c1.961,1.471,4.674,2.205,8.139,2.205h0.854c0.843,0,2.029-0.281,3.557-0.842c1.276-0.471,2.587-1.199,3.932-2.188l0.137,0.135
				c-1.572,1.121-2.952,1.93-4.138,2.424c-1.299,0.561-2.495,0.84-3.59,0.84h-0.752c-3.556,0-6.354-0.773-8.395-2.324
				c-2.041-1.551-3.061-3.809-3.061-6.773c0-3.033,1.453-5.672,4.359-7.918c2.906-2.248,6.445-3.686,10.617-4.314
				c1.208-1.887,3.038-3.393,5.488-4.516s4.964-1.686,7.54-1.686c3.83,0,7.197,0.686,10.104,2.055
				c2.907,1.369,5.147,3.211,6.72,5.523c1.573,2.313,2.359,4.568,2.359,6.768c0,2.201-0.81,4.109-2.428,5.727
				c1.711,0.74,3.044,1.824,4.001,3.248c0.957,1.426,1.437,3.037,1.437,4.834c0,1.459-0.479,2.783-1.438,3.973
				c-0.957,1.191-2.279,2.088-3.966,2.693c0.318,0.719,0.479,1.551,0.479,2.494c0,2.313-0.889,4.49-2.667,6.533
				c-1.777,2.041-4.252,3.68-7.42,4.916c0.615,0.965,0.923,1.975,0.923,3.031c0,2.176-1.117,4.057-3.351,5.641
				c-2.234,1.582-4.855,2.373-7.864,2.373c-3.557,0-6.583-0.887-9.079-2.658c-2.496-1.773-3.744-4.105-3.744-7
				c-0.114,0.043-0.343,0.066-0.687,0.066c-3.041,0-5.556-0.875-7.545-2.625c-1.99-1.75-2.984-4.096-2.984-7.033
				c0-2.717,1.031-5.139,3.095-7.271c2.063-2.131,4.725-3.521,7.984-4.174c1.345-0.268,2.587-0.357,3.728-0.268
				c2.849,0.223,5.021,0.818,6.514,1.783s2.239,1.57,2.239,1.816l-0.136,0.135l-0.274-0.201c-2.166-1.885-4.946-2.928-8.343-3.131
				c-1.095-0.066-2.337,0.033-3.728,0.303c-3.032,0.584-5.448,1.875-7.249,3.871c-1.801,1.998-2.701,4.398-2.701,7.203
				c0,2.67,0.923,4.867,2.77,6.596s4.104,2.592,6.771,2.592h0.547c0.091-1.359,0.556-2.506,1.394-3.443
				c-1.134-0.803-2.021-1.572-2.659-2.313c-0.638-0.74-0.957-1.178-0.957-1.313l0.068-0.201l0.137,0.168
				c0.979,1.346,2.196,2.498,3.649,3.459c0.815-0.871,1.757-1.305,2.821-1.305c0.884,0,1.326,0.381,1.326,1.145
				c0,0.65-0.319,1.301-0.958,1.951c1.049,0.404,2.166,0.742,3.352,1.01c0.547-1.211,1.526-2.182,2.94-2.91
				c1.413-0.73,2.929-1.094,4.548-1.094c1.413,0,2.758,0.285,4.034,0.857s2.291,1.375,3.044,2.406
				c3.191-1.055,5.67-2.568,7.438-4.543c1.767-1.975,2.649-4.207,2.649-6.697c0-0.629-0.114-1.324-0.342-2.088
				c-0.912,0.338-1.938,0.506-3.077,0.506c-1.392,0-2.748-0.236-4.069-0.707l-0.206-0.066c-1.39-0.473-2.7-1.18-3.932-2.121v6.461
				c0,0.449-0.067,0.674-0.205,0.674c-0.137,0-0.205-0.135-0.205-0.404v-7c-0.342-0.314-0.559-0.533-0.649-0.656
				c-0.092-0.123-0.263-0.32-0.513-0.588c-0.411,0.246-0.947,0.639-1.608,1.176l-0.137-0.1c0.548-0.561,1.061-0.988,1.54-1.279
				c-0.616-0.809-1.112-1.594-1.488-2.355c-0.376-0.764-0.564-1.201-0.564-1.313l0.137-0.203l0.138,0.27
				c0.547,1.279,1.23,2.424,2.051,3.434c0.113-0.09,0.438-0.248,0.973-0.473c-0.102-0.268-0.151-0.492-0.151-0.672
				c0-0.291,0.091-0.506,0.273-0.639v-0.338c-0.502-0.113-0.753-0.4-0.753-0.859c0-0.504,0.263-0.756,0.787-0.756v-0.336
				c-0.205-0.135-0.308-0.348-0.308-0.641c0-0.18,0.045-0.42,0.137-0.723c0.091-0.303,0.137-0.635,0.137-0.994v-0.975
				c-0.57-0.09-0.946-0.207-1.128-0.354c-0.184-0.146-0.218-0.219-0.104-0.219l1.231,0.234v-3.434c0-0.357,0.068-0.537,0.205-0.537
				c0.138,0,0.205,0.18,0.205,0.537v3.502c0.593,0.18,1.642,0.27,3.146,0.27c1.253,0,2.581-0.262,3.982-0.785
				c1.402-0.521,2.638-1.262,3.711-2.217c-1.186-0.49-2.53-0.734-4.035-0.734c-1.3,0-2.986,0.381-5.062,1.145l-0.136-0.068
				c0-0.135,0.627-0.414,1.881-0.842c1.253-0.426,2.359-0.639,3.316-0.639c1.551,0,2.997,0.281,4.343,0.842
				c1.573-1.635,2.359-3.451,2.359-5.445c0-3.447-1.596-6.533-4.787-9.254c-3.192-2.721-7.694-4.082-13.506-4.082
				c-2.555,0-4.988,0.443-7.301,1.33c-2.314,0.887-4.087,2.115-5.317,3.686h0.923c0.046-0.18,0.205-0.27,0.479-0.27
				c0.205,0,0.342,0.113,0.41,0.336l0.719,0.102c0.068-0.156,0.205-0.234,0.41-0.234c0.273,0,0.41,0.123,0.41,0.369l0.581,0.135
				c0.114-0.246,0.354-0.371,0.718-0.371c0.229,0,0.491,0.051,0.787,0.152s0.559,0.15,0.786,0.15c0.137,0,0.354-0.033,0.65-0.1
				l0.137,0.234c0,0.135-0.137,0.203-0.411,0.203l-0.752-0.035c-0.297,0-0.49,0.057-0.581,0.17c0.547,0.18,0.935,0.336,1.162,0.471
				c0.114-0.09,0.239-0.135,0.377-0.135c0.273,0,0.41,0.168,0.41,0.504l0.752,0.338c1.938-1.639,4.365-2.457,7.283-2.457
				c2.257,0,4.423,0.77,6.497,2.309c2.073,1.537,3.111,3.27,3.111,5.191c0,0.34-0.063,0.51-0.188,0.51
				C14.941,183.936,14.879,183.744,14.879,183.361z M15.255,183.4c0,1.49-0.722,2.742-2.167,3.758
				c-1.444,1.016-3.122,1.523-5.033,1.523c-2.775,0-6.018-0.785-9.726-2.355c-4.556,2.08-7.2,5.494-7.932,10.238l-0.069,0.369
				c-0.092,0.805-0.137,1.51-0.137,2.115v0.402c0.068,3.646,1.134,6.486,3.197,8.523c2.062,2.037,4.826,3.055,8.291,3.055
				c1.983,0,3.898-0.518,5.745-1.557l0.411-0.27c2.005-1.174,3.316-2.629,3.932-4.365l0.137-0.203l0.068,0.27
				c-0.389,2.041-1.786,3.943-4.195,5.705c-2.408,1.762-5.243,2.643-8.508,2.643c-3.676,0-6.745-1.07-9.211-3.211
				c-2.465-2.141-3.697-5.148-3.697-9.025c0-0.584,0.023-0.998,0.069-1.244v-0.438c0.091-0.717,0.184-1.244,0.275-1.58l0.104-0.336
				c0.69-2.51,2.047-4.75,4.071-6.723c2.023-1.973,4.358-3.496,7.004-4.572c-3.799-1.75-6.682-2.646-8.649-2.691h-0.481
				c-2.654,0-4.805,0.533-6.452,1.598c-1.648,1.066-2.472,2.439-2.472,4.123c0,1.279,0.442,2.244,1.328,2.895
				c0.884,0.65,1.996,0.977,3.335,0.977c0.703,0,1.61-0.359,2.724-1.076l0.137,0.133c0,0.158-0.377,0.428-1.129,0.809
				c-0.752,0.383-1.572,0.572-2.462,0.572c-1.025,0-2-0.393-2.924-1.178c-0.923-0.785-1.385-1.818-1.385-3.098
				c0-1.637,0.787-3.107,2.359-4.408c1.573-1.301,3.749-2.266,6.531-2.895l0.41-0.068c1.345-0.268,2.701-0.402,4.069-0.402
				c1.116,0,2.342,0.145,3.676,0.438c1.333,0.291,3.208,0.975,5.625,2.053c2.416,1.076,4.194,1.744,5.334,2.002
				c1.14,0.26,2.188,0.387,3.146,0.387c1.391,0,2.45-0.268,3.181-0.807c0.729-0.539,1.094-1.256,1.094-2.154
				c0-0.336,0.063-0.506,0.188-0.506C15.192,182.824,15.255,183.018,15.255,183.4z M-9.228,218.232
				c-0.912-0.494-1.744-0.977-2.496-1.447c-0.729,0.875-1.151,1.93-1.266,3.164C-11.6,219.725-10.345,219.152-9.228,218.232z
				 M-12.989,220.318v0.338c0,2.625,1.236,4.773,3.71,6.445c2.474,1.67,5.386,2.508,8.736,2.508c2.986,0,5.534-0.754,7.643-2.256
				c2.109-1.504,3.163-3.299,3.163-5.385c0-0.943-0.285-1.885-0.854-2.828c-2.6,0.92-5.255,1.381-7.968,1.381
				c-2.348,0-4.479-0.248-6.395-0.74c-0.136,0.336-0.205,0.738-0.205,1.207c0,1.066,0.377,1.906,1.129,2.52
				c0.752,0.611,1.663,0.918,2.736,0.918c0.729,0,1.338-0.143,1.829-0.428c0.489-0.285,0.734-0.633,0.734-1.043
				c0-0.434-0.205-0.65-0.615-0.65c0.091,0.121,0.137,0.305,0.137,0.549c0,0.195-0.148,0.293-0.444,0.293
				c-0.41,0-0.615-0.162-0.615-0.484c0-0.508,0.296-0.762,0.889-0.762c0.685,0,1.026,0.34,1.026,1.021
				c0,0.5-0.269,0.938-0.804,1.313c-0.536,0.373-1.248,0.561-2.137,0.561c-1.141,0-2.139-0.348-2.992-1.043
				c-0.855-0.695-1.283-1.615-1.283-2.76c0-0.494,0.069-0.941,0.205-1.346c-1.025-0.225-2.188-0.641-3.487-1.246
				C-9.878,219.365-11.257,220.004-12.989,220.318z M-9.022,217.93c0.661-0.561,0.991-1.111,0.991-1.65
				c0-0.537-0.376-0.807-1.128-0.807c-0.821,0-1.607,0.357-2.359,1.076C-10.629,217.133-9.798,217.594-9.022,217.93z
				 M-1.294,192.418c0,0.539,0.135,1.082,0.407,1.633c0.271,0.549,0.99,1.301,2.157,2.254c1.166,0.955,1.908,1.783,2.225,2.49
				c0.317,0.707,0.476,1.432,0.476,2.172c0,1.637-0.713,3.057-2.137,4.258c-1.425,1.199-2.718,1.799-3.881,1.799
				c-0.89,0-1.658-0.24-2.309-0.723c-0.649-0.482-0.974-1.049-0.974-1.699c0-1.324,0.678-1.986,2.036-1.986
				c0.461,0,0.835,0.178,1.122,0.533s0.432,0.768,0.432,1.232c0,0.645-0.396,1.123-1.187,1.434l-0.216,0.133
				c0,0.152,0.174,0.291,0.521,0.416c0.347,0.127,0.671,0.189,0.972,0.189c0.693,0,1.416-0.359,2.168-1.078
				c0.751-0.719,1.128-1.461,1.128-2.227c0-0.674-0.155-1.344-0.466-2.006c-0.31-0.662-1.072-1.467-2.287-2.412
				c-1.217-0.943-1.979-1.734-2.288-2.377c-0.311-0.641-0.465-1.297-0.465-1.973c0-1.482,0.666-2.799,1.998-3.945
				s2.193-1.719,2.584-1.719l0.342,0.135l-0.308,0.234C-0.61,190.039-1.294,191.117-1.294,192.418z M8.997,218.578
				c-0.774-0.957-1.789-1.709-3.043-2.254s-2.485-0.818-3.692-0.818c-1.505,0-2.924,0.34-4.257,1.02
				c-1.335,0.678-2.274,1.586-2.821,2.721c1.641,0.379,3.396,0.568,5.266,0.568C3.458,219.814,6.308,219.402,8.997,218.578z
				 M7.391,202.01v-0.605c0-0.404-0.023-0.662-0.069-0.775c-0.501,0.203-0.785,0.35-0.854,0.438l0.341,0.404L7.391,202.01z
				 M19.153,204.533c1.368-0.627,2.456-1.576,3.266-2.844c0.809-1.268,1.214-2.615,1.214-4.043c0-1.451-0.399-2.818-1.197-4.105
				s-1.938-2.279-3.419-2.975c-1.117,1.031-2.423,1.834-3.915,2.406c-1.494,0.572-2.901,0.857-4.223,0.857
				c-1.163,0-2.189-0.1-3.078-0.303v0.904c0,0.355,0.046,0.682,0.138,0.982c0.09,0.299,0.136,0.537,0.136,0.715
				c0,0.289-0.091,0.5-0.273,0.635v0.332c0.456,0,0.684,0.252,0.684,0.756c0,0.482-0.228,0.768-0.684,0.859v0.338
				c0.183,0.133,0.273,0.348,0.273,0.639c0,0.18-0.022,0.314-0.068,0.404c0.866-0.338,1.915-0.506,3.146-0.506
				c1.823,0,3.453,0.443,4.889,1.33C17.478,201.803,18.515,203.008,19.153,204.533z M18.948,204.672
				c-0.639-1.449-1.653-2.598-3.043-3.443c-1.392-0.848-2.998-1.271-4.822-1.271c-1.025,0-2.074,0.156-3.145,0.467
				c-0.092,0.27-0.138,0.592-0.138,0.971v0.971c2.53,1.916,5.334,2.875,8.412,2.875C17.124,205.24,18.036,205.051,18.948,204.672z"
				/>
		</g>
	</g>
	<g clip-path="url(#SVGID_2_)">
		<g>
			<path d="M214.879,183.361c0-1.803-1.002-3.432-3.007-4.885c-2.004-1.453-4.134-2.18-6.389-2.18c-2.756,0-5.033,0.738-6.833,2.221
				c0.479,0.246,1.521,0.842,3.127,1.783c1.605,0.943,3.011,1.582,4.219,1.918c1.207,0.336,2.347,0.506,3.417,0.506
				c0.568,0,1.435-0.113,2.597-0.336c0,0.178-0.297,0.352-0.889,0.52c-0.593,0.17-1.208,0.254-1.846,0.254
				c-0.979,0-2.049-0.168-3.211-0.506c-1.161-0.336-2.591-1.014-4.287-2.035c-1.697-1.021-2.808-1.666-3.332-1.936
				c-0.433,0.359-0.877,0.842-1.332,1.447l-0.068-0.135c0-0.225,0.365-0.707,1.094-1.447c-0.274-0.18-0.479-0.291-0.615-0.336
				l-0.41,0.135c-0.296,0-0.444-0.17-0.444-0.506c-0.228-0.135-0.626-0.291-1.195-0.471c-0.046,0.18,0.085,0.398,0.393,0.656
				s0.462,0.465,0.462,0.623l-0.137,0.336c-0.364-0.494-0.695-0.773-0.991-0.842c-0.752-0.201-1.071-0.572-0.956-1.111l-0.581-0.133
				c-0.068,0.133-0.205,0.201-0.41,0.201c-0.273,0-0.41-0.113-0.41-0.336l-0.718-0.068c-0.068,0.135-0.204,0.203-0.409,0.203
				c-0.229,0-0.364-0.09-0.41-0.27h-0.376c-0.388,0-0.661,0.021-0.82,0.066c-0.888,1.234-1.332,2.58-1.332,4.039v1.043
				c0,0.203,0.137,0.73,0.41,1.582c0.501,1.549,1.491,2.828,2.972,3.838l0.239,0.168l-0.205,0.066c-0.182,0-0.688-0.348-1.52-1.043
				c-0.832-0.695-1.486-1.705-1.965-3.029l-0.342-1.514c-0.046-0.203-0.068-0.596-0.068-1.178c0-1.303,0.342-2.604,1.025-3.904
				c-4.077,0.672-7.499,2.098-10.267,4.273c-2.768,2.178-4.151,4.746-4.151,7.707c0,2.805,0.98,4.943,2.94,6.412
				c1.961,1.471,4.674,2.205,8.139,2.205h0.854c0.843,0,2.029-0.281,3.557-0.842c1.276-0.471,2.587-1.199,3.932-2.188l0.137,0.135
				c-1.572,1.121-2.952,1.93-4.138,2.424c-1.299,0.561-2.495,0.84-3.59,0.84h-0.752c-3.556,0-6.354-0.773-8.395-2.324
				c-2.041-1.551-3.061-3.809-3.061-6.773c0-3.033,1.453-5.672,4.359-7.918c2.906-2.248,6.445-3.686,10.617-4.314
				c1.208-1.887,3.038-3.393,5.488-4.516s4.964-1.686,7.54-1.686c3.83,0,7.197,0.686,10.104,2.055
				c2.907,1.369,5.147,3.211,6.72,5.523c1.573,2.313,2.359,4.568,2.359,6.768c0,2.201-0.81,4.109-2.428,5.727
				c1.711,0.74,3.044,1.824,4.001,3.248c0.957,1.426,1.437,3.037,1.437,4.834c0,1.459-0.479,2.783-1.438,3.973
				c-0.957,1.191-2.279,2.088-3.966,2.693c0.318,0.719,0.479,1.551,0.479,2.494c0,2.313-0.889,4.49-2.667,6.533
				c-1.777,2.041-4.252,3.68-7.42,4.916c0.615,0.965,0.923,1.975,0.923,3.031c0,2.176-1.117,4.057-3.351,5.641
				c-2.234,1.582-4.855,2.373-7.864,2.373c-3.557,0-6.583-0.887-9.079-2.658c-2.496-1.773-3.744-4.105-3.744-7
				c-0.114,0.043-0.343,0.066-0.687,0.066c-3.041,0-5.556-0.875-7.545-2.625c-1.99-1.75-2.984-4.096-2.984-7.033
				c0-2.717,1.031-5.139,3.095-7.271c2.063-2.131,4.725-3.521,7.984-4.174c1.345-0.268,2.587-0.357,3.728-0.268
				c2.849,0.223,5.021,0.818,6.514,1.783s2.239,1.57,2.239,1.816l-0.136,0.135l-0.274-0.201c-2.166-1.885-4.946-2.928-8.343-3.131
				c-1.095-0.066-2.337,0.033-3.728,0.303c-3.032,0.584-5.448,1.875-7.249,3.871c-1.801,1.998-2.701,4.398-2.701,7.203
				c0,2.67,0.923,4.867,2.77,6.596s4.104,2.592,6.771,2.592h0.547c0.091-1.359,0.556-2.506,1.394-3.443
				c-1.134-0.803-2.021-1.572-2.659-2.313c-0.638-0.74-0.957-1.178-0.957-1.313l0.068-0.201l0.137,0.168
				c0.979,1.346,2.196,2.498,3.649,3.459c0.815-0.871,1.757-1.305,2.821-1.305c0.884,0,1.326,0.381,1.326,1.145
				c0,0.65-0.319,1.301-0.958,1.951c1.049,0.404,2.166,0.742,3.352,1.01c0.547-1.211,1.526-2.182,2.94-2.91
				c1.413-0.73,2.929-1.094,4.548-1.094c1.413,0,2.758,0.285,4.034,0.857s2.291,1.375,3.044,2.406
				c3.191-1.055,5.67-2.568,7.438-4.543c1.767-1.975,2.649-4.207,2.649-6.697c0-0.629-0.114-1.324-0.342-2.088
				c-0.912,0.338-1.938,0.506-3.077,0.506c-1.392,0-2.748-0.236-4.069-0.707l-0.206-0.066c-1.39-0.473-2.7-1.18-3.932-2.121v6.461
				c0,0.449-0.067,0.674-0.205,0.674c-0.137,0-0.205-0.135-0.205-0.404v-7c-0.342-0.314-0.559-0.533-0.649-0.656
				c-0.092-0.123-0.263-0.32-0.513-0.588c-0.411,0.246-0.947,0.639-1.608,1.176l-0.137-0.1c0.548-0.561,1.061-0.988,1.54-1.279
				c-0.616-0.809-1.112-1.594-1.488-2.355c-0.376-0.764-0.564-1.201-0.564-1.313l0.137-0.203l0.138,0.27
				c0.547,1.279,1.23,2.424,2.051,3.434c0.113-0.09,0.438-0.248,0.973-0.473c-0.102-0.268-0.151-0.492-0.151-0.672
				c0-0.291,0.091-0.506,0.273-0.639v-0.338c-0.502-0.113-0.753-0.4-0.753-0.859c0-0.504,0.263-0.756,0.787-0.756v-0.336
				c-0.205-0.135-0.308-0.348-0.308-0.641c0-0.18,0.045-0.42,0.137-0.723c0.091-0.303,0.137-0.635,0.137-0.994v-0.975
				c-0.57-0.09-0.946-0.207-1.128-0.354c-0.184-0.146-0.218-0.219-0.104-0.219l1.231,0.234v-3.434c0-0.357,0.068-0.537,0.205-0.537
				c0.138,0,0.205,0.18,0.205,0.537v3.502c0.593,0.18,1.642,0.27,3.146,0.27c1.253,0,2.581-0.262,3.982-0.785
				c1.402-0.521,2.638-1.262,3.711-2.217c-1.186-0.49-2.53-0.734-4.035-0.734c-1.3,0-2.986,0.381-5.062,1.145l-0.136-0.068
				c0-0.135,0.627-0.414,1.881-0.842c1.253-0.426,2.359-0.639,3.316-0.639c1.551,0,2.997,0.281,4.343,0.842
				c1.573-1.635,2.359-3.451,2.359-5.445c0-3.447-1.596-6.533-4.787-9.254c-3.192-2.721-7.694-4.082-13.506-4.082
				c-2.555,0-4.988,0.443-7.301,1.33c-2.314,0.887-4.087,2.115-5.317,3.686h0.923c0.046-0.18,0.205-0.27,0.479-0.27
				c0.205,0,0.342,0.113,0.41,0.336l0.719,0.102c0.068-0.156,0.205-0.234,0.41-0.234c0.273,0,0.41,0.123,0.41,0.369l0.581,0.135
				c0.114-0.246,0.354-0.371,0.718-0.371c0.229,0,0.491,0.051,0.787,0.152s0.559,0.15,0.786,0.15c0.137,0,0.354-0.033,0.65-0.1
				l0.137,0.234c0,0.135-0.137,0.203-0.411,0.203l-0.752-0.035c-0.297,0-0.49,0.057-0.581,0.17c0.547,0.18,0.935,0.336,1.162,0.471
				c0.114-0.09,0.239-0.135,0.377-0.135c0.273,0,0.41,0.168,0.41,0.504l0.752,0.338c1.938-1.639,4.365-2.457,7.283-2.457
				c2.257,0,4.423,0.77,6.497,2.309c2.073,1.537,3.111,3.27,3.111,5.191c0,0.34-0.063,0.51-0.188,0.51
				C214.941,183.936,214.879,183.744,214.879,183.361z M215.255,183.4c0,1.49-0.722,2.742-2.167,3.758
				c-1.444,1.016-3.122,1.523-5.033,1.523c-2.775,0-6.018-0.785-9.726-2.355c-4.556,2.08-7.2,5.494-7.932,10.238l-0.069,0.369
				c-0.092,0.805-0.137,1.51-0.137,2.115v0.402c0.068,3.646,1.134,6.486,3.197,8.523c2.062,2.037,4.826,3.055,8.291,3.055
				c1.983,0,3.898-0.518,5.745-1.557l0.411-0.27c2.005-1.174,3.316-2.629,3.932-4.365l0.137-0.203l0.068,0.27
				c-0.389,2.041-1.786,3.943-4.195,5.705c-2.408,1.762-5.243,2.643-8.508,2.643c-3.676,0-6.745-1.07-9.211-3.211
				c-2.465-2.141-3.697-5.148-3.697-9.025c0-0.584,0.023-0.998,0.069-1.244v-0.438c0.091-0.717,0.184-1.244,0.275-1.58l0.104-0.336
				c0.69-2.51,2.047-4.75,4.071-6.723c2.023-1.973,4.358-3.496,7.004-4.572c-3.799-1.75-6.682-2.646-8.649-2.691h-0.481
				c-2.654,0-4.805,0.533-6.452,1.598c-1.648,1.066-2.472,2.439-2.472,4.123c0,1.279,0.442,2.244,1.328,2.895
				c0.884,0.65,1.996,0.977,3.335,0.977c0.703,0,1.61-0.359,2.724-1.076l0.137,0.133c0,0.158-0.377,0.428-1.129,0.809
				c-0.752,0.383-1.572,0.572-2.462,0.572c-1.025,0-2-0.393-2.924-1.178c-0.923-0.785-1.385-1.818-1.385-3.098
				c0-1.637,0.787-3.107,2.359-4.408c1.573-1.301,3.749-2.266,6.531-2.895l0.41-0.068c1.345-0.268,2.701-0.402,4.069-0.402
				c1.116,0,2.342,0.145,3.676,0.438c1.333,0.291,3.208,0.975,5.625,2.053c2.416,1.076,4.194,1.744,5.334,2.002
				c1.14,0.26,2.188,0.387,3.146,0.387c1.391,0,2.45-0.268,3.181-0.807c0.729-0.539,1.094-1.256,1.094-2.154
				c0-0.336,0.063-0.506,0.188-0.506C215.192,182.824,215.255,183.018,215.255,183.4z M190.772,218.232
				c-0.912-0.494-1.744-0.977-2.496-1.447c-0.729,0.875-1.151,1.93-1.266,3.164C188.4,219.725,189.655,219.152,190.772,218.232z
				 M187.011,220.318v0.338c0,2.625,1.236,4.773,3.71,6.445c2.474,1.67,5.386,2.508,8.736,2.508c2.986,0,5.534-0.754,7.643-2.256
				c2.109-1.504,3.163-3.299,3.163-5.385c0-0.943-0.285-1.885-0.854-2.828c-2.6,0.92-5.255,1.381-7.968,1.381
				c-2.348,0-4.479-0.248-6.395-0.74c-0.136,0.336-0.205,0.738-0.205,1.207c0,1.066,0.377,1.906,1.129,2.52
				c0.752,0.611,1.663,0.918,2.736,0.918c0.729,0,1.338-0.143,1.829-0.428c0.489-0.285,0.734-0.633,0.734-1.043
				c0-0.434-0.205-0.65-0.615-0.65c0.091,0.121,0.137,0.305,0.137,0.549c0,0.195-0.148,0.293-0.444,0.293
				c-0.41,0-0.615-0.162-0.615-0.484c0-0.508,0.296-0.762,0.889-0.762c0.685,0,1.026,0.34,1.026,1.021
				c0,0.5-0.269,0.938-0.804,1.313c-0.536,0.373-1.248,0.561-2.137,0.561c-1.141,0-2.139-0.348-2.992-1.043
				c-0.855-0.695-1.283-1.615-1.283-2.76c0-0.494,0.069-0.941,0.205-1.346c-1.025-0.225-2.188-0.641-3.487-1.246
				C190.122,219.365,188.743,220.004,187.011,220.318z M190.978,217.93c0.661-0.561,0.991-1.111,0.991-1.65
				c0-0.537-0.376-0.807-1.128-0.807c-0.821,0-1.607,0.357-2.359,1.076C189.371,217.133,190.202,217.594,190.978,217.93z
				 M198.706,192.418c0,0.539,0.135,1.082,0.407,1.633c0.271,0.549,0.99,1.301,2.157,2.254c1.166,0.955,1.908,1.783,2.225,2.49
				c0.317,0.707,0.476,1.432,0.476,2.172c0,1.637-0.713,3.057-2.137,4.258c-1.425,1.199-2.718,1.799-3.881,1.799
				c-0.89,0-1.658-0.24-2.309-0.723c-0.649-0.482-0.974-1.049-0.974-1.699c0-1.324,0.678-1.986,2.036-1.986
				c0.461,0,0.835,0.178,1.122,0.533s0.432,0.768,0.432,1.232c0,0.645-0.396,1.123-1.187,1.434l-0.216,0.133
				c0,0.152,0.174,0.291,0.521,0.416c0.347,0.127,0.671,0.189,0.972,0.189c0.693,0,1.416-0.359,2.168-1.078
				c0.751-0.719,1.128-1.461,1.128-2.227c0-0.674-0.155-1.344-0.466-2.006c-0.31-0.662-1.072-1.467-2.287-2.412
				c-1.217-0.943-1.979-1.734-2.288-2.377c-0.311-0.641-0.465-1.297-0.465-1.973c0-1.482,0.666-2.799,1.998-3.945
				s2.193-1.719,2.584-1.719l0.342,0.135l-0.308,0.234C199.39,190.039,198.706,191.117,198.706,192.418z M208.997,218.578
				c-0.774-0.957-1.789-1.709-3.043-2.254s-2.485-0.818-3.692-0.818c-1.505,0-2.924,0.34-4.257,1.02
				c-1.335,0.678-2.274,1.586-2.821,2.721c1.641,0.379,3.396,0.568,5.266,0.568C203.458,219.814,206.308,219.402,208.997,218.578z
				 M207.391,202.01v-0.605c0-0.404-0.023-0.662-0.069-0.775c-0.501,0.203-0.785,0.35-0.854,0.438l0.341,0.404L207.391,202.01z
				 M219.153,204.533c1.368-0.627,2.456-1.576,3.266-2.844c0.809-1.268,1.214-2.615,1.214-4.043c0-1.451-0.399-2.818-1.197-4.105
				s-1.938-2.279-3.419-2.975c-1.117,1.031-2.423,1.834-3.915,2.406c-1.494,0.572-2.901,0.857-4.223,0.857
				c-1.163,0-2.189-0.1-3.078-0.303v0.904c0,0.355,0.046,0.682,0.138,0.982c0.09,0.299,0.136,0.537,0.136,0.715
				c0,0.289-0.091,0.5-0.273,0.635v0.332c0.456,0,0.684,0.252,0.684,0.756c0,0.482-0.228,0.768-0.684,0.859v0.338
				c0.183,0.133,0.273,0.348,0.273,0.639c0,0.18-0.022,0.314-0.068,0.404c0.866-0.338,1.915-0.506,3.146-0.506
				c1.823,0,3.453,0.443,4.889,1.33C217.478,201.803,218.515,203.008,219.153,204.533z M218.948,204.672
				c-0.639-1.449-1.653-2.598-3.043-3.443c-1.392-0.848-2.998-1.271-4.822-1.271c-1.025,0-2.074,0.156-3.145,0.467
				c-0.092,0.27-0.138,0.592-0.138,0.971v0.971c2.53,1.916,5.334,2.875,8.412,2.875C217.124,205.24,218.036,205.051,218.948,204.672
				z"/>
		</g>
	</g>
	<g clip-path="url(#SVGID_2_)">
		<g>
			<path d="M214.879-16.639c0-1.803-1.002-3.431-3.006-4.884c-2.004-1.454-4.135-2.181-6.389-2.181
				c-2.756,0-5.033,0.739-6.834,2.221c0.479,0.247,1.521,0.842,3.127,1.784s3.012,1.582,4.219,1.918s2.348,0.505,3.418,0.505
				c0.568,0,1.434-0.112,2.596-0.336c0,0.179-0.297,0.353-0.889,0.521c-0.592,0.169-1.207,0.253-1.846,0.253
				c-0.979,0-2.049-0.168-3.211-0.505c-1.16-0.337-2.59-1.015-4.287-2.036c-1.697-1.021-2.807-1.666-3.332-1.936
				c-0.432,0.359-0.877,0.842-1.332,1.447l-0.068-0.134c0-0.225,0.365-0.707,1.094-1.448c-0.273-0.18-0.479-0.291-0.615-0.336
				l-0.41,0.135c-0.295,0-0.443-0.169-0.443-0.505c-0.229-0.136-0.627-0.292-1.195-0.472c-0.047,0.18,0.084,0.399,0.393,0.656
				c0.307,0.259,0.461,0.466,0.461,0.623l-0.137,0.337c-0.363-0.494-0.695-0.774-0.99-0.842c-0.752-0.202-1.072-0.572-0.957-1.111
				l-0.58-0.134c-0.068,0.134-0.205,0.202-0.41,0.202c-0.273,0-0.41-0.113-0.41-0.337l-0.719-0.067
				c-0.068,0.135-0.203,0.202-0.408,0.202c-0.229,0-0.365-0.09-0.41-0.27h-0.377c-0.387,0-0.66,0.022-0.82,0.067
				c-0.887,1.234-1.332,2.58-1.332,4.039v1.043c0,0.202,0.137,0.729,0.41,1.582c0.502,1.548,1.492,2.827,2.973,3.837l0.238,0.168
				l-0.205,0.067c-0.182,0-0.688-0.348-1.52-1.043s-1.486-1.705-1.965-3.029l-0.342-1.515c-0.045-0.202-0.068-0.595-0.068-1.178
				c0-1.302,0.342-2.603,1.025-3.904c-4.076,0.673-7.498,2.098-10.266,4.274s-4.152,4.745-4.152,7.707
				c0,2.805,0.98,4.942,2.941,6.412s4.674,2.204,8.139,2.204h0.854c0.844,0,2.029-0.28,3.557-0.842
				c1.277-0.471,2.588-1.199,3.932-2.188l0.137,0.135c-1.572,1.122-2.951,1.93-4.137,2.424c-1.299,0.561-2.496,0.841-3.59,0.841
				h-0.752c-3.557,0-6.355-0.774-8.395-2.325c-2.041-1.55-3.061-3.808-3.061-6.773c0-3.032,1.453-5.672,4.359-7.918
				c2.906-2.247,6.445-3.685,10.617-4.314c1.207-1.887,3.037-3.392,5.488-4.515c2.449-1.124,4.963-1.686,7.539-1.686
				c3.83,0,7.197,0.685,10.104,2.054c2.908,1.37,5.148,3.211,6.721,5.523s2.359,4.569,2.359,6.769c0,2.2-0.811,4.109-2.428,5.726
				c1.711,0.741,3.043,1.824,4,3.249c0.957,1.426,1.438,3.037,1.438,4.833c0,1.459-0.48,2.784-1.438,3.974
				c-0.957,1.19-2.279,2.088-3.967,2.693c0.318,0.719,0.479,1.55,0.479,2.493c0,2.313-0.889,4.49-2.666,6.533
				c-1.777,2.042-4.252,3.681-7.42,4.916c0.615,0.966,0.922,1.976,0.922,3.031c0,2.177-1.117,4.058-3.35,5.641
				c-2.234,1.582-4.855,2.374-7.865,2.374c-3.557,0-6.582-0.887-9.078-2.659s-3.744-4.105-3.744-7
				c-0.115,0.044-0.344,0.066-0.688,0.066c-3.041,0-5.555-0.874-7.545-2.625c-1.99-1.75-2.984-4.095-2.984-7.033
				c0-2.716,1.031-5.139,3.096-7.271c2.063-2.132,4.725-3.522,7.984-4.174c1.344-0.269,2.586-0.358,3.727-0.269
				c2.85,0.224,5.021,0.818,6.514,1.783c1.494,0.965,2.24,1.57,2.24,1.817l-0.137,0.135l-0.273-0.202
				c-2.166-1.885-4.947-2.928-8.344-3.13c-1.094-0.067-2.336,0.033-3.727,0.303c-3.033,0.584-5.449,1.874-7.25,3.87
				c-1.801,1.998-2.701,4.398-2.701,7.203c0,2.67,0.924,4.868,2.77,6.597c1.848,1.728,4.104,2.592,6.771,2.592h0.547
				c0.09-1.36,0.555-2.507,1.393-3.443c-1.133-0.803-2.02-1.573-2.658-2.313c-0.639-0.739-0.957-1.177-0.957-1.312l0.068-0.201
				l0.137,0.168c0.979,1.346,2.195,2.498,3.648,3.458c0.816-0.87,1.758-1.304,2.822-1.304c0.883,0,1.326,0.381,1.326,1.144
				c0,0.651-0.32,1.302-0.959,1.952c1.049,0.404,2.166,0.741,3.352,1.01c0.547-1.211,1.527-2.183,2.941-2.911
				c1.412-0.729,2.928-1.094,4.547-1.094c1.414,0,2.758,0.286,4.035,0.858c1.275,0.572,2.291,1.374,3.043,2.406
				c3.191-1.055,5.67-2.569,7.438-4.544c1.768-1.974,2.65-4.207,2.65-6.697c0-0.628-0.115-1.323-0.342-2.087
				c-0.912,0.337-1.939,0.505-3.078,0.505c-1.391,0-2.748-0.235-4.068-0.707l-0.207-0.066c-1.389-0.472-2.699-1.179-3.932-2.121
				v6.462c0,0.449-0.066,0.674-0.205,0.674c-0.137,0-0.205-0.135-0.205-0.404v-7c-0.342-0.314-0.559-0.533-0.648-0.657
				c-0.092-0.123-0.264-0.319-0.514-0.588c-0.41,0.246-0.947,0.639-1.607,1.177l-0.137-0.101c0.547-0.561,1.061-0.987,1.539-1.278
				c-0.615-0.809-1.111-1.594-1.488-2.356c-0.375-0.763-0.564-1.2-0.564-1.313l0.137-0.202l0.139,0.27
				c0.547,1.278,1.23,2.423,2.051,3.433c0.113-0.09,0.438-0.247,0.973-0.472c-0.102-0.269-0.152-0.493-0.152-0.673
				c0-0.291,0.092-0.505,0.273-0.639V-1.29c-0.502-0.113-0.752-0.399-0.752-0.858c0-0.504,0.262-0.756,0.787-0.756v-0.337
				c-0.205-0.135-0.309-0.348-0.309-0.64c0-0.18,0.045-0.421,0.137-0.724s0.137-0.634,0.137-0.993v-0.976
				c-0.57-0.09-0.945-0.207-1.127-0.354c-0.184-0.146-0.219-0.219-0.104-0.219l1.23,0.235v-3.434c0-0.358,0.068-0.538,0.205-0.538
				c0.139,0,0.205,0.18,0.205,0.538v3.501c0.594,0.18,1.643,0.27,3.146,0.27c1.254,0,2.582-0.261,3.982-0.784
				c1.402-0.522,2.639-1.262,3.711-2.218c-1.186-0.49-2.529-0.734-4.035-0.734c-1.299,0-2.986,0.382-5.061,1.145l-0.137-0.067
				c0-0.135,0.627-0.415,1.881-0.842c1.254-0.426,2.359-0.639,3.316-0.639c1.551,0,2.998,0.28,4.344,0.841
				c1.572-1.635,2.359-3.45,2.359-5.444c0-3.448-1.596-6.533-4.787-9.254c-3.193-2.722-7.695-4.082-13.506-4.082
				c-2.555,0-4.988,0.443-7.301,1.329c-2.314,0.887-4.088,2.115-5.318,3.686h0.924c0.045-0.18,0.205-0.269,0.479-0.269
				c0.205,0,0.342,0.112,0.41,0.336l0.719,0.101c0.068-0.156,0.205-0.234,0.41-0.234c0.273,0,0.41,0.123,0.41,0.369l0.58,0.136
				c0.115-0.247,0.354-0.371,0.719-0.371c0.229,0,0.49,0.051,0.787,0.151c0.295,0.102,0.559,0.151,0.785,0.151
				c0.137,0,0.354-0.033,0.65-0.101l0.137,0.235c0,0.135-0.137,0.202-0.41,0.202l-0.752-0.034c-0.297,0-0.49,0.057-0.582,0.169
				c0.547,0.18,0.936,0.336,1.162,0.471c0.115-0.089,0.24-0.135,0.377-0.135c0.273,0,0.41,0.168,0.41,0.505l0.752,0.337
				c1.938-1.638,4.365-2.457,7.283-2.457c2.258,0,4.424,0.77,6.498,2.309c2.072,1.538,3.111,3.27,3.111,5.192
				c0,0.34-0.063,0.51-0.188,0.51C214.941-16.064,214.879-16.255,214.879-16.639z M215.256-16.599c0,1.49-0.723,2.742-2.168,3.758
				c-1.443,1.016-3.121,1.522-5.033,1.522c-2.775,0-6.018-0.785-9.725-2.355c-4.557,2.081-7.201,5.494-7.932,10.238l-0.07,0.369
				c-0.092,0.806-0.137,1.511-0.137,2.115v0.403c0.068,3.646,1.135,6.486,3.197,8.523c2.063,2.036,4.826,3.055,8.291,3.055
				c1.984,0,3.898-0.519,5.746-1.557l0.41-0.271c2.006-1.173,3.316-2.628,3.932-4.365l0.137-0.203l0.068,0.27
				c-0.389,2.042-1.785,3.944-4.195,5.705c-2.408,1.762-5.242,2.643-8.508,2.643c-3.676,0-6.744-1.07-9.211-3.211
				c-2.465-2.14-3.697-5.148-3.697-9.025c0-0.583,0.023-0.997,0.07-1.244v-0.437c0.09-0.718,0.184-1.244,0.275-1.58l0.104-0.337
				c0.689-2.509,2.047-4.75,4.07-6.723c2.023-1.972,4.359-3.495,7.004-4.571c-3.799-1.75-6.682-2.647-8.648-2.692h-0.482
				c-2.654,0-4.805,0.533-6.451,1.599c-1.648,1.065-2.473,2.439-2.473,4.123c0,1.278,0.443,2.244,1.328,2.895
				s1.996,0.976,3.336,0.976c0.703,0,1.609-0.358,2.723-1.076l0.137,0.134c0,0.157-0.377,0.427-1.129,0.809
				s-1.572,0.571-2.461,0.571c-1.025,0-2-0.392-2.924-1.178c-0.924-0.785-1.385-1.817-1.385-3.097c0-1.638,0.787-3.107,2.359-4.409
				c1.572-1.301,3.748-2.266,6.531-2.894l0.41-0.068c1.344-0.269,2.701-0.403,4.068-0.403c1.117,0,2.342,0.146,3.676,0.438
				s3.209,0.976,5.625,2.054c2.416,1.076,4.195,1.744,5.334,2.002c1.141,0.259,2.189,0.387,3.146,0.387
				c1.391,0,2.449-0.269,3.18-0.808c0.729-0.538,1.094-1.256,1.094-2.154c0-0.336,0.063-0.505,0.189-0.505
				C215.193-17.175,215.256-16.983,215.256-16.599z M190.773,18.232c-0.912-0.493-1.744-0.976-2.496-1.447
				c-0.73,0.875-1.152,1.93-1.266,3.164C188.4,19.724,189.656,19.152,190.773,18.232z M187.012,20.319v0.337
				c0,2.625,1.236,4.773,3.709,6.445c2.475,1.671,5.387,2.508,8.736,2.508c2.986,0,5.535-0.753,7.643-2.256
				c2.109-1.503,3.164-3.298,3.164-5.385c0-0.942-0.285-1.885-0.855-2.827c-2.6,0.92-5.254,1.38-7.967,1.38
				c-2.348,0-4.479-0.247-6.395-0.74c-0.137,0.336-0.205,0.738-0.205,1.207c0,1.067,0.377,1.907,1.129,2.52
				c0.752,0.611,1.662,0.918,2.736,0.918c0.729,0,1.338-0.143,1.828-0.428s0.734-0.633,0.734-1.043c0-0.433-0.205-0.649-0.615-0.649
				c0.092,0.121,0.137,0.305,0.137,0.548c0,0.195-0.148,0.293-0.443,0.293c-0.41,0-0.615-0.161-0.615-0.484
				c0-0.507,0.295-0.761,0.889-0.761c0.684,0,1.025,0.34,1.025,1.021c0,0.5-0.268,0.937-0.803,1.312
				c-0.537,0.373-1.248,0.562-2.137,0.562c-1.141,0-2.139-0.349-2.992-1.043c-0.855-0.696-1.283-1.616-1.283-2.761
				c0-0.493,0.068-0.941,0.205-1.346c-1.025-0.225-2.188-0.64-3.488-1.245C190.123,19.365,188.744,20.004,187.012,20.319z
				 M190.979,17.929c0.66-0.561,0.99-1.11,0.99-1.649c0-0.538-0.375-0.808-1.127-0.808c-0.822,0-1.607,0.358-2.359,1.077
				C189.371,17.132,190.203,17.593,190.979,17.929z M198.707-7.583c0,0.539,0.135,1.083,0.406,1.633s0.99,1.301,2.158,2.255
				c1.166,0.954,1.908,1.783,2.225,2.49s0.475,1.431,0.475,2.171c0,1.638-0.713,3.058-2.137,4.258s-2.717,1.8-3.881,1.8
				c-0.889,0-1.658-0.24-2.309-0.723c-0.648-0.482-0.973-1.049-0.973-1.7c0-1.323,0.678-1.986,2.035-1.986
				c0.461,0,0.836,0.178,1.123,0.534c0.287,0.355,0.432,0.767,0.432,1.232c0,0.645-0.396,1.122-1.188,1.433l-0.215,0.134
				c0,0.151,0.174,0.29,0.52,0.416c0.348,0.126,0.672,0.189,0.973,0.189c0.693,0,1.416-0.359,2.168-1.079
				c0.75-0.719,1.127-1.461,1.127-2.226c0-0.674-0.154-1.344-0.465-2.007c-0.311-0.662-1.072-1.467-2.287-2.411
				c-1.217-0.943-1.979-1.735-2.289-2.377c-0.311-0.641-0.465-1.298-0.465-1.973c0-1.483,0.666-2.799,1.998-3.945
				s2.193-1.72,2.584-1.72l0.342,0.135l-0.307,0.235C199.391-9.96,198.707-8.883,198.707-7.583z M208.998,18.579
				c-0.775-0.957-1.789-1.709-3.043-2.254c-1.254-0.546-2.486-0.818-3.693-0.818c-1.504,0-2.924,0.339-4.256,1.019
				c-1.336,0.679-2.275,1.586-2.822,2.722c1.641,0.378,3.396,0.567,5.266,0.567C203.459,19.814,206.309,19.402,208.998,18.579z
				 M207.391,2.009V1.404c0-0.403-0.023-0.662-0.068-0.774c-0.502,0.202-0.785,0.349-0.854,0.438l0.34,0.404L207.391,2.009z
				 M219.154,4.534c1.367-0.628,2.455-1.576,3.266-2.844c0.809-1.268,1.213-2.616,1.213-4.044c0-1.45-0.398-2.818-1.197-4.105
				c-0.797-1.287-1.938-2.278-3.418-2.975c-1.117,1.032-2.424,1.835-3.916,2.407c-1.494,0.572-2.9,0.857-4.223,0.857
				c-1.162,0-2.189-0.101-3.078-0.303v0.903c0,0.355,0.047,0.683,0.139,0.982c0.09,0.3,0.135,0.538,0.135,0.716
				c0,0.289-0.09,0.499-0.273,0.634v0.333c0.457,0,0.684,0.252,0.684,0.756c0,0.481-0.227,0.768-0.684,0.858v0.338
				c0.184,0.134,0.273,0.348,0.273,0.639c0,0.18-0.021,0.314-0.068,0.404c0.867-0.337,1.916-0.505,3.146-0.505
				c1.824,0,3.453,0.443,4.889,1.329C217.479,1.802,218.516,3.008,219.154,4.534z M218.949,4.672
				c-0.639-1.45-1.654-2.598-3.043-3.444c-1.393-0.848-2.998-1.271-4.822-1.271c-1.025,0-2.074,0.156-3.145,0.468
				c-0.092,0.269-0.139,0.591-0.139,0.971v0.97c2.531,1.917,5.334,2.876,8.412,2.876C217.125,5.241,218.037,5.051,218.949,4.672z"/>
		</g>
	</g>
	<g clip-path="url(#SVGID_2_)">
		<g>
			<path d="M14.879-16.639c0-1.803-1.002-3.431-3.007-4.884c-2.004-1.454-4.134-2.181-6.389-2.181c-2.756,0-5.033,0.739-6.833,2.221
				c0.479,0.247,1.521,0.842,3.127,1.784c1.605,0.942,3.011,1.582,4.219,1.918c1.207,0.336,2.347,0.505,3.417,0.505
				c0.568,0,1.435-0.112,2.597-0.336c0,0.179-0.297,0.353-0.889,0.521c-0.593,0.169-1.208,0.253-1.846,0.253
				c-0.979,0-2.049-0.168-3.211-0.505c-1.161-0.337-2.591-1.015-4.287-2.036C0.08-20.4-1.03-21.045-1.555-21.315
				c-0.433,0.359-0.877,0.842-1.332,1.447l-0.068-0.134c0-0.225,0.365-0.707,1.094-1.448c-0.274-0.18-0.479-0.291-0.615-0.336
				l-0.41,0.135c-0.296,0-0.444-0.169-0.444-0.505c-0.228-0.136-0.626-0.292-1.195-0.472c-0.046,0.18,0.085,0.399,0.393,0.656
				c0.308,0.259,0.462,0.466,0.462,0.623l-0.137,0.337c-0.364-0.494-0.695-0.774-0.991-0.842c-0.752-0.202-1.071-0.572-0.956-1.111
				l-0.581-0.134c-0.068,0.134-0.205,0.202-0.41,0.202c-0.273,0-0.41-0.113-0.41-0.337L-7.875-23.3
				c-0.068,0.135-0.204,0.202-0.409,0.202c-0.229,0-0.364-0.09-0.41-0.27H-9.07c-0.388,0-0.661,0.022-0.82,0.067
				c-0.888,1.234-1.332,2.58-1.332,4.039v1.043c0,0.202,0.137,0.729,0.41,1.582c0.501,1.548,1.491,2.827,2.972,3.837l0.239,0.168
				l-0.205,0.067c-0.182,0-0.688-0.348-1.52-1.043c-0.832-0.695-1.486-1.705-1.965-3.029l-0.342-1.515
				c-0.046-0.202-0.068-0.595-0.068-1.178c0-1.302,0.342-2.603,1.025-3.904c-4.077,0.673-7.499,2.098-10.267,4.274
				s-4.151,4.745-4.151,7.707c0,2.805,0.98,4.942,2.94,6.412c1.961,1.47,4.674,2.204,8.139,2.204h0.854
				c0.843,0,2.029-0.28,3.557-0.842c1.276-0.471,2.587-1.199,3.932-2.188l0.137,0.135C-7.107-4.408-8.487-3.6-9.673-3.106
				c-1.299,0.561-2.495,0.841-3.59,0.841h-0.752c-3.556,0-6.354-0.774-8.395-2.325c-2.041-1.55-3.061-3.808-3.061-6.773
				c0-3.032,1.453-5.672,4.359-7.918c2.906-2.247,6.445-3.685,10.617-4.314c1.208-1.887,3.038-3.392,5.488-4.515
				c2.45-1.124,4.964-1.686,7.54-1.686c3.83,0,7.197,0.685,10.104,2.054c2.907,1.37,5.147,3.211,6.72,5.523
				c1.573,2.313,2.359,4.569,2.359,6.769c0,2.2-0.81,4.109-2.428,5.726c1.711,0.741,3.044,1.824,4.001,3.249
				c0.957,1.426,1.437,3.037,1.437,4.833c0,1.459-0.479,2.784-1.438,3.974c-0.957,1.19-2.279,2.088-3.966,2.693
				c0.318,0.719,0.479,1.55,0.479,2.493c0,2.313-0.889,4.49-2.667,6.533c-1.777,2.042-4.252,3.681-7.42,4.916
				c0.615,0.966,0.923,1.976,0.923,3.031c0,2.177-1.117,4.058-3.351,5.641c-2.234,1.582-4.855,2.374-7.864,2.374
				c-3.557,0-6.583-0.887-9.079-2.659s-3.744-4.105-3.744-7c-0.114,0.044-0.343,0.066-0.687,0.066c-3.041,0-5.556-0.874-7.545-2.625
				c-1.99-1.75-2.984-4.095-2.984-7.033c0-2.716,1.031-5.139,3.095-7.271s4.725-3.522,7.984-4.174
				c1.345-0.269,2.587-0.358,3.728-0.269c2.849,0.224,5.021,0.818,6.514,1.783s2.239,1.57,2.239,1.817l-0.136,0.135l-0.274-0.202
				c-2.166-1.885-4.946-2.928-8.343-3.13c-1.095-0.067-2.337,0.033-3.728,0.303c-3.032,0.584-5.448,1.874-7.249,3.87
				c-1.801,1.998-2.701,4.398-2.701,7.203c0,2.67,0.923,4.868,2.77,6.597c1.847,1.728,4.104,2.592,6.771,2.592h0.547
				c0.091-1.36,0.556-2.507,1.394-3.443c-1.134-0.803-2.021-1.573-2.659-2.313c-0.638-0.739-0.957-1.177-0.957-1.312l0.068-0.201
				l0.137,0.168c0.979,1.346,2.196,2.498,3.649,3.458c0.815-0.87,1.757-1.304,2.821-1.304c0.884,0,1.326,0.381,1.326,1.144
				c0,0.651-0.319,1.302-0.958,1.952c1.049,0.404,2.166,0.741,3.352,1.01c0.547-1.211,1.526-2.183,2.94-2.911
				c1.413-0.729,2.929-1.094,4.548-1.094c1.413,0,2.758,0.286,4.034,0.858s2.291,1.374,3.044,2.406
				c3.191-1.055,5.67-2.569,7.438-4.544c1.767-1.974,2.649-4.207,2.649-6.697c0-0.628-0.114-1.323-0.342-2.087
				c-0.912,0.337-1.938,0.505-3.077,0.505c-1.392,0-2.748-0.235-4.069-0.707l-0.206-0.066c-1.39-0.472-2.7-1.179-3.932-2.121v6.462
				c0,0.449-0.067,0.674-0.205,0.674c-0.137,0-0.205-0.135-0.205-0.404v-7C7.049,2.133,6.832,1.915,6.741,1.791
				C6.649,1.667,6.479,1.471,6.229,1.203C5.817,1.449,5.281,1.841,4.62,2.379L4.483,2.279C5.031,1.718,5.544,1.292,6.023,1
				C5.407,0.192,4.911-0.593,4.535-1.356s-0.564-1.2-0.564-1.313l0.137-0.202l0.138,0.27c0.547,1.278,1.23,2.423,2.051,3.433
				c0.113-0.09,0.438-0.247,0.973-0.472C7.167,0.091,7.117-0.133,7.117-0.313c0-0.291,0.091-0.505,0.273-0.639V-1.29
				C6.889-1.403,6.638-1.689,6.638-2.148c0-0.504,0.263-0.756,0.787-0.756v-0.337C7.22-3.375,7.117-3.588,7.117-3.88
				c0-0.18,0.045-0.421,0.137-0.724c0.091-0.303,0.137-0.634,0.137-0.993v-0.976C6.82-6.663,6.444-6.78,6.263-6.926
				C6.079-7.073,6.045-7.145,6.159-7.145L7.391-6.91v-3.434c0-0.358,0.068-0.538,0.205-0.538c0.138,0,0.205,0.18,0.205,0.538v3.501
				c0.593,0.18,1.642,0.27,3.146,0.27c1.253,0,2.581-0.261,3.982-0.784c1.402-0.522,2.638-1.262,3.711-2.218
				c-1.186-0.49-2.53-0.734-4.035-0.734c-1.3,0-2.986,0.382-5.062,1.145L9.408-9.232c0-0.135,0.627-0.415,1.881-0.842
				c1.253-0.426,2.359-0.639,3.316-0.639c1.551,0,2.997,0.28,4.343,0.841c1.573-1.635,2.359-3.45,2.359-5.444
				c0-3.448-1.596-6.533-4.787-9.254c-3.192-2.722-7.694-4.082-13.506-4.082c-2.555,0-4.988,0.443-7.301,1.329
				c-2.314,0.887-4.087,2.115-5.317,3.686h0.923c0.046-0.18,0.205-0.269,0.479-0.269c0.205,0,0.342,0.112,0.41,0.336l0.719,0.101
				c0.068-0.156,0.205-0.234,0.41-0.234c0.273,0,0.41,0.123,0.41,0.369l0.581,0.136c0.114-0.247,0.354-0.371,0.718-0.371
				c0.229,0,0.491,0.051,0.787,0.151c0.296,0.102,0.559,0.151,0.786,0.151c0.137,0,0.354-0.033,0.65-0.101l0.137,0.235
				c0,0.135-0.137,0.202-0.411,0.202l-0.752-0.034c-0.297,0-0.49,0.057-0.581,0.169c0.547,0.18,0.935,0.336,1.162,0.471
				c0.114-0.089,0.239-0.135,0.377-0.135c0.273,0,0.41,0.168,0.41,0.505l0.752,0.337c1.938-1.638,4.365-2.457,7.283-2.457
				c2.257,0,4.423,0.77,6.497,2.309c2.073,1.538,3.111,3.27,3.111,5.192c0,0.34-0.063,0.51-0.188,0.51
				C14.941-16.064,14.879-16.255,14.879-16.639z M15.255-16.599c0,1.49-0.722,2.742-2.167,3.758
				c-1.444,1.016-3.122,1.522-5.033,1.522c-2.775,0-6.018-0.785-9.726-2.355c-4.556,2.081-7.2,5.494-7.932,10.238l-0.069,0.369
				c-0.092,0.806-0.137,1.511-0.137,2.115v0.403c0.068,3.646,1.134,6.486,3.197,8.523c2.062,2.036,4.826,3.055,8.291,3.055
				c1.983,0,3.898-0.519,5.745-1.557l0.411-0.271c2.005-1.173,3.316-2.628,3.932-4.365l0.137-0.203l0.068,0.27
				c-0.389,2.042-1.786,3.944-4.195,5.705c-2.408,1.762-5.243,2.643-8.508,2.643c-3.676,0-6.745-1.07-9.211-3.211
				c-2.465-2.14-3.697-5.148-3.697-9.025c0-0.583,0.023-0.997,0.069-1.244v-0.437c0.091-0.718,0.184-1.244,0.275-1.58l0.104-0.337
				c0.69-2.509,2.047-4.75,4.071-6.723c2.023-1.972,4.358-3.495,7.004-4.571c-3.799-1.75-6.682-2.647-8.649-2.692h-0.481
				c-2.654,0-4.805,0.533-6.452,1.599c-1.648,1.065-2.472,2.439-2.472,4.123c0,1.278,0.442,2.244,1.328,2.895
				c0.884,0.65,1.996,0.976,3.335,0.976c0.703,0,1.61-0.358,2.724-1.076l0.137,0.134c0,0.157-0.377,0.427-1.129,0.809
				s-1.572,0.571-2.462,0.571c-1.025,0-2-0.392-2.924-1.178c-0.923-0.785-1.385-1.817-1.385-3.097c0-1.638,0.787-3.107,2.359-4.409
				c1.573-1.301,3.749-2.266,6.531-2.894l0.41-0.068c1.345-0.269,2.701-0.403,4.069-0.403c1.116,0,2.342,0.146,3.676,0.438
				c1.333,0.292,3.208,0.976,5.625,2.054c2.416,1.076,4.194,1.744,5.334,2.002c1.14,0.259,2.188,0.387,3.146,0.387
				c1.391,0,2.45-0.269,3.181-0.808c0.729-0.538,1.094-1.256,1.094-2.154c0-0.336,0.063-0.505,0.188-0.505
				C15.192-17.175,15.255-16.983,15.255-16.599z M-9.228,18.232c-0.912-0.493-1.744-0.976-2.496-1.447
				c-0.729,0.875-1.151,1.93-1.266,3.164C-11.6,19.724-10.345,19.152-9.228,18.232z M-12.989,20.319v0.337
				c0,2.625,1.236,4.773,3.71,6.445c2.474,1.671,5.386,2.508,8.736,2.508c2.986,0,5.534-0.753,7.643-2.256
				c2.109-1.503,3.163-3.298,3.163-5.385c0-0.942-0.285-1.885-0.854-2.827c-2.6,0.92-5.255,1.38-7.968,1.38
				c-2.348,0-4.479-0.247-6.395-0.74c-0.136,0.336-0.205,0.738-0.205,1.207c0,1.067,0.377,1.907,1.129,2.52
				c0.752,0.611,1.663,0.918,2.736,0.918c0.729,0,1.338-0.143,1.829-0.428c0.489-0.285,0.734-0.633,0.734-1.043
				c0-0.433-0.205-0.649-0.615-0.649c0.091,0.121,0.137,0.305,0.137,0.548c0,0.195-0.148,0.293-0.444,0.293
				c-0.41,0-0.615-0.161-0.615-0.484c0-0.507,0.296-0.761,0.889-0.761c0.685,0,1.026,0.34,1.026,1.021
				c0,0.5-0.269,0.937-0.804,1.312c-0.536,0.373-1.248,0.562-2.137,0.562c-1.141,0-2.139-0.349-2.992-1.043
				c-0.855-0.696-1.283-1.616-1.283-2.761c0-0.493,0.069-0.941,0.205-1.346c-1.025-0.225-2.188-0.64-3.487-1.245
				C-9.878,19.365-11.257,20.004-12.989,20.319z M-9.022,17.929c0.661-0.561,0.991-1.11,0.991-1.649
				c0-0.538-0.376-0.808-1.128-0.808c-0.821,0-1.607,0.358-2.359,1.077C-10.629,17.132-9.798,17.593-9.022,17.929z M-1.294-7.583
				c0,0.539,0.135,1.083,0.407,1.633c0.271,0.55,0.99,1.301,2.157,2.255c1.166,0.954,1.908,1.783,2.225,2.49
				c0.317,0.707,0.476,1.431,0.476,2.171c0,1.638-0.713,3.058-2.137,4.258c-1.425,1.2-2.718,1.8-3.881,1.8
				c-0.89,0-1.658-0.24-2.309-0.723c-0.649-0.482-0.974-1.049-0.974-1.7c0-1.323,0.678-1.986,2.036-1.986
				c0.461,0,0.835,0.178,1.122,0.534c0.287,0.355,0.432,0.767,0.432,1.232c0,0.645-0.396,1.122-1.187,1.433l-0.216,0.134
				c0,0.151,0.174,0.29,0.521,0.416s0.671,0.189,0.972,0.189c0.693,0,1.416-0.359,2.168-1.079C1.27,4.755,1.646,4.013,1.646,3.249
				c0-0.674-0.155-1.344-0.466-2.007C0.871,0.58,0.108-0.225-1.106-1.169c-1.217-0.943-1.979-1.735-2.288-2.377
				c-0.311-0.641-0.465-1.298-0.465-1.973c0-1.483,0.666-2.799,1.998-3.945s2.193-1.72,2.584-1.72l0.342,0.135l-0.308,0.235
				C-0.61-9.96-1.294-8.883-1.294-7.583z M8.997,18.579c-0.774-0.957-1.789-1.709-3.043-2.254c-1.254-0.546-2.485-0.818-3.692-0.818
				c-1.505,0-2.924,0.339-4.257,1.019c-1.335,0.679-2.274,1.586-2.821,2.722c1.641,0.378,3.396,0.567,5.266,0.567
				C3.458,19.814,6.308,19.402,8.997,18.579z M7.391,2.009V1.404c0-0.403-0.023-0.662-0.069-0.774
				C6.82,0.832,6.536,0.978,6.468,1.067l0.341,0.404L7.391,2.009z M19.153,4.534c1.368-0.628,2.456-1.576,3.266-2.844
				c0.809-1.268,1.214-2.616,1.214-4.044c0-1.45-0.399-2.818-1.197-4.105s-1.938-2.278-3.419-2.975
				c-1.117,1.032-2.423,1.835-3.915,2.407c-1.494,0.572-2.901,0.857-4.223,0.857c-1.163,0-2.189-0.101-3.078-0.303v0.903
				c0,0.355,0.046,0.683,0.138,0.982c0.09,0.3,0.136,0.538,0.136,0.716c0,0.289-0.091,0.499-0.273,0.634v0.333
				c0.456,0,0.684,0.252,0.684,0.756c0,0.481-0.228,0.768-0.684,0.858v0.338c0.183,0.134,0.273,0.348,0.273,0.639
				c0,0.18-0.022,0.314-0.068,0.404c0.866-0.337,1.915-0.505,3.146-0.505c1.823,0,3.453,0.443,4.889,1.329
				C17.478,1.802,18.515,3.008,19.153,4.534z M18.948,4.672c-0.639-1.45-1.653-2.598-3.043-3.444
				c-1.392-0.848-2.998-1.271-4.822-1.271c-1.025,0-2.074,0.156-3.145,0.468C7.847,0.693,7.801,1.015,7.801,1.395v0.97
				c2.53,1.917,5.334,2.876,8.412,2.876C17.124,5.241,18.036,5.051,18.948,4.672z"/>
		</g>
	</g>
	
		<line clip-path="url(#SVGID_2_)" fill="none" stroke="#000000" stroke-miterlimit="10" x1="191.049" y1="-90.313" x2="-115.283" y2="216.02"/>
	
		<line clip-path="url(#SVGID_2_)" fill="none" stroke="#000000" stroke-miterlimit="10" x1="290.84" y1="9.396" x2="-15.492" y2="315.73"/>
	
		<line clip-path="url(#SVGID_2_)" fill="none" stroke="#000000" stroke-miterlimit="10" x1="194.757" y1="294.236" x2="-111.576" y2="-12.097"/>
	
		<line clip-path="url(#SVGID_2_)" fill="none" stroke="#000000" stroke-miterlimit="10" x1="12.796" y1="-87.606" x2="319.13" y2="218.727"/>
</g>
</svg>
