<?xml version="1.0" encoding="utf-8"?>
<!-- Generator: Adobe Illustrator 15.0.0, SVG Export Plug-In . SVG Version: 6.00 Build 0)  -->
<!DOCTYPE svg PUBLIC "-//W3C//DTD SVG 1.1//EN" "http://www.w3.org/Graphics/SVG/1.1/DTD/svg11.dtd">
<svg version="1.1" id="Ebene_1" xmlns="http://www.w3.org/2000/svg" xmlns:xlink="http://www.w3.org/1999/xlink" x="0px" y="0px"
	 width="200px" height="200px" viewBox="0 0 200 200" enable-background="new 0 0 200 200" xml:space="preserve">
<path fill="#1D1D1B" d="M33.665,143.589c15.275,0,28.175-10.151,32.342-24.073c3.182-1.442,6.417-3.526,29.436-4.062
	c0.029,1.185,0.052,2.394,0.063,3.646c-4.656,66.097-18.108,55.666-19.621,67.7c-0.251,2-0.396,3.096-0.396,3.096
	s15.573-3.727,24.289-3.727c8.721,0,24.294,3.727,24.294,3.727s-0.14-1.096-0.393-3.096c-1.521-12.071-15.013-1.563-19.619-68.302
	c0.014-1.038,0.032-2.056,0.055-3.045c24.001,0.557,26.722,3.143,29.829,4.217c4.213,13.842,17.077,23.918,32.299,23.918
	c18.642,0,33.758-15.116,33.758-33.76c0-18.642-15.116-33.758-33.758-33.758c-15.222,0-28.086,10.074-32.299,23.916
	c-3.103,1.074-5.81,4.969-29.726,5.542c0.994-25.553,3.231-30.963,4.954-35.24c14.073-4.069,24.365-17.045,24.365-32.426
	c0-18.644-15.114-33.758-33.76-33.758c-18.643,0-33.758,15.114-33.758,33.758c0,15.383,10.295,28.356,24.369,32.426
	c1.72,4.277,3.957,9.688,4.951,35.24c-22.932-0.55-26.156-3.941-29.333-5.383c-4.164-13.922-17.064-24.074-32.342-24.074
	c-18.646,0-33.76,15.116-33.76,33.758C-0.096,128.473,15.019,143.589,33.665,143.589z"/>
</svg>
