<?xml version="1.0" encoding="utf-8"?>
<!-- Generator: Adobe Illustrator 15.0.0, SVG Export Plug-In . SVG Version: 6.00 Build 0)  -->
<!DOCTYPE svg PUBLIC "-//W3C//DTD SVG 1.1//EN" "http://www.w3.org/Graphics/SVG/1.1/DTD/svg11.dtd">
<svg version="1.1" id="Ebene_1" xmlns="http://www.w3.org/2000/svg" xmlns:xlink="http://www.w3.org/1999/xlink" x="0px" y="0px"
	 width="200px" height="200px" viewBox="0 0 200 200" enable-background="new 0 0 200 200" xml:space="preserve">
<path fill="#1D1D1B" d="M189.227,74.462c0-24.992-22.535-45.253-50.336-45.253c-27.799,0-38.89,20.261-38.89,45.253
	c0-0.014-0.001-0.028-0.001-0.042c0.017-58.469,33.93-73.452,33.93-73.452L100,1.3L66.069,0.968c0,0,33.852,14.958,33.929,73.297
	c-0.059-24.901-11.162-45.056-38.889-45.056c-27.799,0-50.335,20.261-50.335,45.253C7.807,116.666,100,199.033,100,199.033
	S192.193,116.666,189.227,74.462z"/>
</svg>
